<?xml version="1.0"?>
<svg width="512" height="512" xmlns="http://www.w3.org/2000/svg" xmlns:svg="http://www.w3.org/2000/svg" preserveAspectRatio="xMidYMid meet">
 <metadata>Created by potrace 1.13, written by Peter Selinger 2001-2015</metadata>
 <g>
  <title>Layer 1</title>
  
  <g id="svg_6" fill="#000000" transform="translate(-150,512) scale(0.10000000149011612,-0.10000000149011612) ">
   <path fill="#ff7f0e" stroke="null" id="svg_7" d="m3238.597305,5074.408265c-322.740492,-22.175667 -632.516779,-92.279388 -850.178971,-192.427561c-225.167785,-103.724893 -371.185682,-245.363024 -423.724832,-411.322854l-15.693512,-50.074087l0,-1169.587592l0,-1169.587592l15.693512,-50.074087c34.798658,-110.878334 120.089486,-219.610637 235.402685,-302.590551c209.474273,-150.937604 542.449665,-253.231809 963.445191,-296.152455c136.465324,-13.591538 512.427293,-11.445505 655.033557,4.292065c648.210291,70.819065 1064.429531,283.276261 1164.049218,594.450941l16.375839,50.074087l0,1169.587592l0,1169.587592l-19.105145,57.942872c-96.208054,294.006422 -490.592841,502.886897 -1089.675616,577.998027c-193.098434,24.321699 -454.42953,31.47514 -651.621924,17.883602zm576.565996,-238.924927c491.275168,-55.081495 852.225951,-208.880475 945.704698,-402.02338c16.375839,-35.051861 19.787472,-50.074087 19.787472,-95.140764c0,-45.066678 -3.411633,-60.088904 -19.787472,-95.140764c-93.478747,-193.858249 -455.111857,-346.226541 -952.527965,-402.738724c-158.299776,-18.598946 -510.380313,-18.598946 -668.68009,0c-210.1566,23.606355 -369.138703,57.227527 -528.803132,112.309023c-270.883669,92.994732 -431.230425,224.618045 -444.876958,365.540832c-25.928412,262.531282 445.559284,485.718639 1120.380314,530.785317c90.067114,5.722753 434.642058,-2.861376 528.803132,-13.591538zm-1491.565996,-1006.489139c216.297539,-113.739711 480.357942,-183.128088 843.355705,-221.756669c113.266219,-12.16085 501.510067,-12.16085 617.505593,0c416.901566,43.63599 745.782998,143.784163 953.892618,289.714358l46.39821,32.905828l-2.04698,-223.187357l-2.04698,-223.187357l-19.787472,-42.920646c-90.067114,-193.142905 -449.653244,-344.795853 -952.527965,-402.02338c-158.299776,-17.883602 -510.380313,-17.883602 -668.68009,0c-502.874721,57.227527 -862.460851,208.880475 -952.527965,402.02338l-19.787472,42.920646l-2.04698,223.187357l-2.04698,223.187357l46.39821,-32.905828c25.246085,-17.883602 77.102908,-48.643398 113.948546,-67.957689zm-56.63311,-638.802275c418.948546,-298.298487 1405.592842,-373.409617 2081.096198,-158.091045c175.357942,55.796839 312.505593,130.907969 424.407159,231.771486c11.599553,10.730161 12.281879,2.146032 10.234899,-227.479422l-2.04698,-239.640271l-19.787472,-42.920646c-90.067114,-193.142905 -449.653244,-344.795853 -952.527965,-402.02338c-158.299776,-17.883602 -510.380313,-17.883602 -668.68009,0c-502.874721,57.227527 -862.460851,208.880475 -952.527965,402.02338l-19.787472,42.920646l-2.04698,238.924927l-2.04698,238.924927l29.340045,-25.752387c16.375839,-14.306882 49.809843,-40.774613 74.373602,-58.658216zm0,-686.730329c418.948546,-298.298487 1405.592842,-373.409617 2081.096198,-158.091045c175.357942,55.796839 312.505593,130.907969 424.407159,231.771486c11.599553,10.730161 12.281879,2.146032 10.234899,-227.479422l-2.04698,-239.640271l-19.787472,-41.489957c-93.478747,-193.858249 -455.111857,-346.226541 -952.527965,-402.738724c-158.299776,-18.598946 -510.380313,-18.598946 -668.68009,0c-210.1566,23.606355 -369.138703,57.227527 -528.803132,112.309023c-220.391499,75.826474 -369.138703,178.120679 -423.724832,290.429702l-19.787472,41.489957l-2.04698,238.924927l-2.04698,238.924927l29.340045,-25.752387c16.375839,-14.306882 49.809843,-40.774613 74.373602,-58.658216z"/>
   <path fill="#ff7f0e" stroke="null" id="svg_8" d="m4412.199095,3584.346519c-68.914989,-31.47514 -85.290828,-127.331249 -31.387025,-183.843432c76.420582,-80.833883 201.96868,-8.584129 182.181208,104.440238c-12.281879,67.242345 -89.384788,108.016958 -150.794184,79.403194z"/>
   <path fill="#ff7f0e" stroke="null" id="svg_9" d="m4412.199095,2897.61619c-68.914989,-31.47514 -85.290828,-127.331249 -31.387025,-183.843432c44.35123,-46.497366 107.12528,-46.497366 151.47651,0c84.608501,88.702668 -10.234899,233.917518 -120.089486,183.843432z"/>
   <path fill="#ff7f0e" stroke="null" id="svg_10" d="m4412.199095,2210.885861c-68.914989,-31.47514 -85.290828,-127.331249 -31.387025,-183.843432c44.35123,-46.497366 107.12528,-46.497366 151.47651,0c84.608501,88.702668 -10.234899,233.917518 -120.089486,183.843432z"/>
  </g>
 </g>
</svg>